Coordinates
version=1
nRows=26
nColumns=24
inDegrees=yes

Units are S.I. units (second, meters, Newtons, ...)
Angles are in degrees.

endheader
time	pelvis_tilt	pelvis_list	pelvis_rotation	pelvis_tx	pelvis_ty	pelvis_tz	hip_flexion_r	hip_adduction_r	hip_rotation_r	knee_angle_r	ankle_angle_r	subtalar_angle_r	mtp_angle_r	hip_flexion_l	hip_adduction_l	hip_rotation_l	knee_angle_l	ankle_angle_l	subtalar_angle_l	mtp_angle_l	lumbar_extension	lumbar_bending	lumbar_rotation
      3.88000000	     38.75909370	      3.57256674	     -2.40524437	      0.68865826	      1.06866959	     -0.33037655	     35.10910209	    -12.44175964	     11.73671874	    -73.96554610	    -19.70780329	      0.00000000	      0.00000000	     27.68634213	    -13.74619701	     -6.79007658	    -69.56614638	    -13.74842396	      0.00000000	      0.00000000	      0.00000000	      0.00000000	      0.00000000
      3.89000000	     38.77306362	      3.57567620	     -2.39846401	      0.68864171	      1.06872104	     -0.33040322	     35.07345269	    -12.39077536	     11.53199477	    -74.02984148	    -19.78610945	      0.00000000	      0.00000000	     27.66187391	    -13.73478365	     -6.78639148	    -69.55809484	    -13.75849429	      0.00000000	      0.00000000	      0.00000000	      0.00000000	      0.00000000
      3.90000000	     38.78898864	      3.57908909	     -2.39033467	      0.68862185	      1.06877739	     -0.33043085	     35.04105344	    -12.33963910	     11.31251329	    -74.10292639	    -19.87212680	      0.00000000	      0.00000000	     27.63773739	    -13.72257423	     -6.78169384	    -69.54718471	    -13.77322727	      0.00000000	      0.00000000	      0.00000000	      0.00000000	      0.00000000
      3.91000000	     38.80655304	      3.58320351	     -2.38068366	      0.68860976	      1.06883077	     -0.33046690	     35.00954296	    -12.28998393	     11.07782345	    -74.18357868	    -19.96445598	      0.00000000	      0.00000000	     27.61376863	    -13.70906087	     -6.77699368	    -69.53560424	    -13.79285295	      0.00000000	      0.00000000	      0.00000000	      0.00000000	      0.00000000
      3.92000000	     38.82544464	      3.58794119	     -2.36974436	      0.68861000	      1.06888466	     -0.33051119	     34.97582874	    -12.24297159	     10.82875219	    -74.26913174	    -20.05862157	      0.00000000	      0.00000000	     27.58983469	    -13.69397858	     -6.77382348	    -69.52558077	    -13.81563106	      0.00000000	      0.00000000	      0.00000000	      0.00000000	      0.00000000
      3.93000000	     38.84638998	      3.59339045	     -2.35866333	      0.68861483	      1.06894076	     -0.33055763	     34.93772042	    -12.19935291	     10.56718400	    -74.35638418	    -20.14614436	      0.00000000	      0.00000000	     27.56499427	    -13.67820892	     -6.77342684	    -69.51809785	    -13.83631895	      0.00000000	      0.00000000	      0.00000000	      0.00000000	      0.00000000
      3.94000000	     38.87116585	      3.60017429	     -2.34919238	      0.68860922	      1.06898532	     -0.33059596	     34.89463598	    -12.15905535	     10.29607696	    -74.44282144	    -20.21470151	      0.00000000	      0.00000000	     27.53684762	    -13.66405367	     -6.77596017	    -69.51134214	    -13.84535554	      0.00000000	      0.00000000	      0.00000000	      0.00000000	      0.00000000
      3.95000000	     38.90171153	      3.60876664	     -2.34256431	      0.68858926	      1.06901803	     -0.33061919	     34.84719244	    -12.11982290	     10.01949217	    -74.52787225	    -20.24993698	      0.00000000	      0.00000000	     27.50177512	    -13.65363200	     -6.78053332	    -69.49974386	    -13.82965530	      0.00000000	      0.00000000	      0.00000000	      0.00000000	      0.00000000
      3.96000000	     38.93796946	      3.61797321	     -2.33830518	      0.68857668	      1.06908248	     -0.33063434	     34.79574134	    -12.07548759	      9.74200634	    -74.61382239	    -20.23903986	      0.00000000	      0.00000000	     27.45565066	    -13.64549956	     -6.78637537	    -69.47495983	    -13.77554492	      0.00000000	      0.00000000	      0.00000000	      0.00000000	      0.00000000
      3.97000000	     38.97493964	      3.62377103	     -2.33417108	      0.68859651	      1.06921539	     -0.33065460	     34.73865708	    -12.01620440	      9.46748238	    -74.70562710	    -20.17542338	      0.00000000	      0.00000000	     27.39425660	    -13.63218807	     -6.79415288	    -69.42940986	    -13.67348016	      0.00000000	      0.00000000	      0.00000000	      0.00000000	      0.00000000
      3.98000000	     39.00276117	      3.62077661	     -2.32786370	      0.68862854	      1.06934909	     -0.33067762	     34.67241078	    -11.93281568	      9.19810959	    -74.80862428	    -20.06299186	      0.00000000	      0.00000000	     27.31438356	    -13.60301732	     -6.80558472	    -69.36073992	    -13.52298144	      0.00000000	      0.00000000	      0.00000000	      0.00000000	      0.00000000
      3.99000000	     39.01440513	      3.60705965	     -2.31913482	      0.68861879	      1.06935996	     -0.33068934	     34.59549538	    -11.82421030	      8.93506216	    -74.92406860	    -19.91793698	      0.00000000	      0.00000000	     27.21744196	    -13.55343626	     -6.82065726	    -69.27401367	    -13.33546079	      0.00000000	      0.00000000	      0.00000000	      0.00000000	      0.00000000
      4.00000000	     39.01616460	      3.58788937	     -2.30996584	      0.68857238	      1.06928194	     -0.33069105	     34.51374052	    -11.70192459	      8.68030691	    -75.04549005	    -19.76636502	      0.00000000	      0.00000000	     27.11330803	    -13.49332077	     -6.83526116	    -69.18002297	    -13.13297968	      0.00000000	      0.00000000	      0.00000000	      0.00000000	      0.00000000
      4.01000000	     39.02403143	      3.57232627	     -2.30269757	      0.68855641	      1.06929251	     -0.33069565	     34.43838521	    -11.58499449	      8.43603324	    -75.16134181	    -19.63771918	      0.00000000	      0.00000000	     27.01709167	    -13.44167585	     -6.84401514	    -69.09180953	    -12.94271181	      0.00000000	      0.00000000	      0.00000000	      0.00000000	      0.00000000
      4.02000000	     39.04645338	      3.56550661	     -2.29814713	      0.68858261	      1.06943119	     -0.33070295	     34.37682679	    -11.48769598	      8.20157286	    -75.26296835	    -19.55627465	      0.00000000	      0.00000000	     26.93976035	    -13.41085363	     -6.84625996	    -69.02119028	    -12.78912457	      0.00000000	      0.00000000	      0.00000000	      0.00000000	      0.00000000
      4.03000000	     39.07792970	      3.56595675	     -2.29517986	      0.68859914	      1.06956810	     -0.33071041	     34.32856638	    -11.41234537	      7.97298445	    -75.34905596	    -19.53434121	      0.00000000	      0.00000000	     26.88389487	    -13.39915267	     -6.84713242	    -68.97477228	    -12.68718838	      0.00000000	      0.00000000	      0.00000000	      0.00000000	      0.00000000
      4.04000000	     39.10873333	      3.56875597	     -2.29156157	      0.68858416	      1.06962269	     -0.33072353	     34.28977932	    -11.35242856	      7.74670318	    -75.42318320	    -19.56994441	      0.00000000	      0.00000000	     26.84683672	    -13.39712525	     -6.85269826	    -68.95127348	    -12.63933635	      0.00000000	      0.00000000	      0.00000000	      0.00000000	      0.00000000
      4.05000000	     39.13395723	      3.56944717	     -2.28533951	      0.68856192	      1.06963565	     -0.33073998	     34.25802995	    -11.29975534	      7.52284053	    -75.48942471	    -19.64941498	      0.00000000	      0.00000000	     26.82427452	    -13.39668345	     -6.86524202	    -68.94294338	    -12.63679865	      0.00000000	      0.00000000	      0.00000000	      0.00000000	      0.00000000
      4.06000000	     39.15377034	      3.56655511	     -2.27606800	      0.68855214	      1.06966628	     -0.33075332	     34.23241208	    -11.24860533	      7.30491593	    -75.55029478	    -19.75313248	      0.00000000	      0.00000000	     26.81139012	    -13.39487528	     -6.88246593	    -68.94023377	    -12.66394681	      0.00000000	      0.00000000	      0.00000000	      0.00000000	      0.00000000
      4.07000000	     39.16969336	      3.56165929	     -2.26501741	      0.68854983	      1.06971685	     -0.33076709	     34.21181247	    -11.19620269	      7.09746825	    -75.60681255	    -19.86165009	      0.00000000	      0.00000000	     26.80308998	    -13.39237182	     -6.89982442	    -68.93637588	    -12.70354716	      0.00000000	      0.00000000	      0.00000000	      0.00000000	      0.00000000
      4.08000000	     39.18274495	      3.55705389	     -2.25416798	      0.68854645	      1.06976120	     -0.33078639	     34.19453575	    -11.14209683	      6.90431451	    -75.65891204	    -19.96003903	      0.00000000	      0.00000000	     26.79490554	    -13.39039106	     -6.91354671	    -68.92922144	    -12.74116762	      0.00000000	      0.00000000	      0.00000000	      0.00000000	      0.00000000
      4.09000000	     39.19385599	      3.55341759	     -2.24489496	      0.68854501	      1.06979293	     -0.33080273	     34.17904306	    -11.08754905	      6.72817407	    -75.70556601	    -20.03973906	      0.00000000	      0.00000000	     26.78431029	    -13.38895971	     -6.92244856	    -68.92016491	    -12.76774904	      0.00000000	      0.00000000	      0.00000000	      0.00000000	      0.00000000
      4.10000000	     39.20422870	      3.54990387	     -2.23742653	      0.68854864	      1.06982321	     -0.33080439	     34.16434793	    -11.03453555	      6.57072326	    -75.74498151	    -20.09832482	      0.00000000	      0.00000000	     26.77120004	    -13.38710436	     -6.92779873	    -68.91187548	    -12.78011808	      0.00000000	      0.00000000	      0.00000000	      0.00000000	      0.00000000
      4.11000000	     39.21478064	      3.54603290	     -2.23126064	      0.68854850	      1.06985636	     -0.33079890	     34.14971609	    -10.98454278	      6.43243738	    -75.77529761	    -20.13803151	      0.00000000	      0.00000000	     26.75720747	    -13.38389990	     -6.93188186	    -68.90646259	    -12.77983806	      0.00000000	      0.00000000	      0.00000000	      0.00000000	      0.00000000
      4.12000000	     39.22552915	      3.54264292	     -2.22569085	      0.68853628	      1.06988570	     -0.33080610	     34.13445930	    -10.93822472	      6.31267638	    -75.79550919	    -20.16377674	      0.00000000	      0.00000000	     26.74438276	    -13.37920348	     -6.93656108	    -68.90469539	    -12.77118093	      0.00000000	      0.00000000	      0.00000000	      0.00000000	      0.00000000
      4.13000000	     39.23565518	      3.54086031	     -2.21998754	      0.68851839	      1.06990605	     -0.33082834	     34.11839640	    -10.89608321	      6.21033109	    -75.80591884	    -20.18116036	      0.00000000	      0.00000000	     26.73395007	    -13.37360188	     -6.94261188	    -68.90618423	    -12.75908185	      0.00000000	      0.00000000	      0.00000000	      0.00000000	      0.00000000
